<svg width="24" height="20" viewBox="0 0 24 20" fill="none" xmlns="http://www.w3.org/2000/svg">
<g filter="url(#filter0_d_13_16)">
<path d="M21.543 2.498C22 4.28 22 8 22 8C22 8 22 11.72 21.543 13.502C21.289 14.487 20.546 15.262 19.605 15.524C17.896 16 12 16 12 16C12 16 6.107 16 4.395 15.524C3.45 15.258 2.708 14.484 2.457 13.502C2 11.72 2 8 2 8C2 8 2 4.28 2.457 2.498C2.711 1.513 3.454 0.738 4.395 0.476C6.107 -1.78814e-07 12 0 12 0C12 0 17.896 -1.78814e-07 19.605 0.476C20.55 0.742 21.292 1.516 21.543 2.498V2.498ZM10 11.5L16 8L10 4.5V11.5Z" fill="#899D9D"/>
<path d="M19.4708 15.0423L19.4709 15.0423C20.2312 14.8306 20.8469 14.1983 21.0587 13.3778C21.2731 12.5415 21.3863 11.2125 21.4435 10.058C21.4717 9.48797 21.4859 8.97256 21.4929 8.59962C21.4965 8.41325 21.4982 8.26273 21.4991 8.15908C21.4996 8.10726 21.4998 8.06717 21.4999 8.0402L21.5 8.00974L21.5 8.00222L21.5 8.00044V8.00005V8.00002V7.99998V7.99995V7.99956L21.5 7.99778L21.5 7.99026L21.4999 7.9598C21.4998 7.93283 21.4996 7.89274 21.4991 7.84092C21.4982 7.73727 21.4965 7.58675 21.4929 7.40039C21.4859 7.02744 21.4717 6.51203 21.4435 5.942C21.3863 4.7875 21.2731 3.45851 21.0587 2.62221L21.543 2.498L21.0586 2.62182C20.8501 1.80615 20.2365 1.1735 19.4703 0.95752C19.0929 0.85248 18.4462 0.765935 17.6537 0.699041C16.872 0.633067 15.9838 0.588798 15.144 0.559189C14.305 0.529609 13.5185 0.514802 12.9415 0.507396C12.6532 0.503695 12.4174 0.501845 12.2539 0.500922C12.1721 0.50046 12.1084 0.500229 12.0653 0.500114L12.0163 0.500014L12.004 0.500002L12.0009 0.5L12.0002 0.5H12L12 0L12 0.5H11.9998L11.9991 0.5L11.996 0.500002L11.9837 0.500014L11.9347 0.500114C11.8916 0.500229 11.828 0.50046 11.7463 0.500922C11.5828 0.501845 11.3472 0.503695 11.0589 0.507396C10.4821 0.514802 9.69593 0.529609 8.85712 0.559189C8.01751 0.588798 7.12938 0.633067 6.34758 0.699041C5.55468 0.765952 4.90739 0.852533 4.52911 0.957678L19.4708 15.0423ZM19.4708 15.0423C19.0935 15.1474 18.4466 15.234 17.6537 15.301C16.872 15.3669 15.9838 15.4112 15.144 15.4408C14.305 15.4704 13.5185 15.4852 12.9415 15.4926C12.6532 15.4963 12.4174 15.4982 12.2539 15.4991C12.1721 15.4995 12.1084 15.4998 12.0653 15.4999L12.0163 15.5L12.004 15.5L12.0009 15.5H12.0002H12H11.9998H11.9991L11.996 15.5L11.9837 15.5L11.9347 15.4999C11.8916 15.4998 11.828 15.4995 11.7463 15.4991C11.5828 15.4982 11.3472 15.4963 11.0589 15.4926C10.4821 15.4852 9.69593 15.4704 8.85712 15.4408C8.01751 15.4112 7.12938 15.3669 6.34758 15.301C5.55513 15.2341 4.90812 15.1476 4.52975 15.0425C3.76356 14.8265 3.14992 14.1939 2.94143 13.3782L2.94133 13.3778M19.4708 15.0423L2.94133 13.3778M2.94133 13.3778C2.72686 12.5415 2.61372 11.2125 2.55651 10.058M2.94133 13.3778L2.55651 10.058M2.55651 10.058C2.52826 9.48797 2.51412 8.97256 2.50705 8.59962M2.55651 10.058L2.50705 8.59962M2.50705 8.59962C2.50352 8.41325 2.50175 8.26273 2.50087 8.15908M2.50705 8.59962L2.50087 8.15908M2.50087 8.15908C2.50043 8.10726 2.50022 8.06717 2.50011 8.0402M2.50087 8.15908L2.50011 8.0402M2.50011 8.0402L2.50001 8.00974M2.50011 8.0402L2.50001 8.00974M2.50001 8.00974L2.5 8.00222M2.50001 8.00974L2.5 8.00222M2.5 8.00222L2.5 8.00044M2.5 8.00222L2.5 8.00044M2.5 8.00044L2.5 8.00005M2.5 8.00044L2.5 8.00005M2.5 8.00005V8.00002M2.5 8.00005V8.00002M2.5 8.00002V7.99998M2.5 8.00002V7.99998M2.5 7.99998V7.99995L2.5 7.99956L2.5 7.99778L2.50001 7.99026L2.50011 7.9598C2.50022 7.93283 2.50043 7.89274 2.50087 7.84092C2.50175 7.73727 2.50352 7.58675 2.50705 7.40038C2.51412 7.02744 2.52826 6.51203 2.55651 5.942C2.61372 4.78765 2.72682 3.45886 2.94124 2.62254C3.15296 1.80195 3.76865 1.16948 4.52894 0.957727L2.5 7.99998ZM9.5 11.5V12.3705L10.2519 11.9319L16.2519 8.43189L16.9923 8L16.2519 7.56811L10.2519 4.06811L9.5 3.62948V4.5V11.5Z" stroke="black"/>
</g>
<defs>
<filter id="filter0_d_13_16" x="-2" y="0" width="28" height="24" filterUnits="userSpaceOnUse" color-interpolation-filters="sRGB">
<feFlood flood-opacity="0" result="BackgroundImageFix"/>
<feColorMatrix in="SourceAlpha" type="matrix" values="0 0 0 0 0 0 0 0 0 0 0 0 0 0 0 0 0 0 127 0" result="hardAlpha"/>
<feOffset dy="4"/>
<feGaussianBlur stdDeviation="2"/>
<feComposite in2="hardAlpha" operator="out"/>
<feColorMatrix type="matrix" values="0 0 0 0 0 0 0 0 0 0 0 0 0 0 0 0 0 0 0.25 0"/>
<feBlend mode="normal" in2="BackgroundImageFix" result="effect1_dropShadow_13_16"/>
<feBlend mode="normal" in="SourceGraphic" in2="effect1_dropShadow_13_16" result="shape"/>
</filter>
</defs>
</svg>
